<?xml version="1.0" standalone="no"?>
<!DOCTYPE svg PUBLIC "-//W3C//DTD SVG 20010904//EN"
 "http://www.w3.org/TR/2001/REC-SVG-20010904/DTD/svg10.dtd">
<svg version="1.0" xmlns="http://www.w3.org/2000/svg"
 width="80.000000pt" height="80.000000pt" viewBox="0 0 80.000000 80.000000"
 preserveAspectRatio="xMidYMid meet">
<metadata>
Created by potrace 1.10, written by Peter Selinger 2001-2011
</metadata>
<g transform="translate(0.000000,197.000000) scale(0.100000,-0.100000)"
fill="#000000" stroke="none">
<path d="M1089 1758 c-2 -27 -8 -55 -23 -108 -9 -30 -18 -64 -20 -75 -5 -25
-44 -161 -103 -360 -24 -82 -45 -157 -47 -165 -3 -21 -14 -59 -52 -195 -19
-66 -39 -138 -45 -160 -7 -22 -16 -53 -20 -70 -32 -109 -48 -171 -49 -178 0
-4 -6 -23 -14 -42 -9 -20 -15 -38 -15 -40 0 -25 -16 -77 -25 -83 -13 -8 94
-19 141 -14 34 4 29 -6 73 157 10 39 26 95 35 125 9 30 17 60 19 65 1 6 6 27
11 48 4 20 10 37 14 37 4 0 7 8 8 18 0 9 8 42 17 72 9 30 18 64 21 75 2 11 9
37 14 58 6 20 15 52 20 70 5 17 16 57 25 87 9 30 18 63 21 73 10 42 53 192 63
217 3 8 6 20 7 25 0 6 5 24 9 40 5 17 23 84 41 150 18 66 38 133 44 148 6 16
11 30 11 33 0 2 -40 4 -90 4 -65 0 -90 -3 -91 -12z m132 -17 c9 -1 3 -33 -19
-121 -22 -82 -60 -216 -68 -240 -3 -8 -5 -15 -4 -15 0 0 -9 -27 -20 -59 -11
-33 -20 -72 -20 -88 0 -15 -4 -28 -10 -28 -5 0 -10 -11 -10 -23 0 -13 -8 -50
-19 -83 -10 -32 -32 -107 -47 -166 -16 -58 -32 -104 -35 -102 -4 2 -5 -4 -2
-14 2 -10 -5 -42 -16 -70 -12 -29 -21 -64 -21 -78 0 -13 -4 -32 -9 -42 -5 -9
-19 -55 -31 -102 -34 -130 -51 -181 -68 -201 -19 -23 -68 -25 -88 -5 -17 17
-13 38 36 206 17 58 40 139 51 180 11 41 25 90 30 108 5 17 13 47 18 65 5 17
24 84 41 147 18 63 35 117 39 120 3 3 7 14 8 25 1 11 16 70 33 130 17 61 35
126 40 145 5 19 13 51 18 70 6 19 20 71 32 115 12 44 26 85 32 92 5 7 7 16 4
22 -9 14 56 21 105 12z"/>
<path d="M1498 1642 l-48 -3 0 -134 0 -134 -86 -3 -85 -3 0 -139 0 -139 80 -1
c43 -1 82 -3 85 -6 3 -3 6 -97 7 -209 1 -216 8 -258 55 -332 31 -50 75 -84
139 -108 48 -18 78 -21 215 -21 l160 0 0 135 0 135 -37 1 c-21 1 -56 1 -78 0
-109 -6 -127 30 -123 246 l3 157 115 2 c112 3 115 3 117 26 1 13 4 76 5 141
l3 117 -123 0 -123 0 3 135 3 135 -45 0 c-25 1 -79 2 -120 3 -41 1 -96 1 -122
-1z m236 -47 c13 -13 16 -38 16 -119 0 -133 5 -139 133 -146 l92 -5 3 -94 c2
-69 -1 -97 -10 -103 -7 -4 -47 -8 -89 -8 -62 0 -81 -4 -103 -21 l-26 -20 0
-170 c0 -188 7 -217 60 -244 16 -8 53 -15 83 -15 81 0 88 -9 85 -110 l-3 -85
-150 0 c-142 0 -154 2 -200 25 -61 31 -108 97 -125 172 -6 29 -14 138 -17 241
-6 185 -6 188 -31 207 -15 12 -40 20 -64 20 -71 0 -78 10 -78 103 0 51 5 88
12 95 7 7 35 12 63 12 80 0 93 19 97 149 2 65 7 109 15 117 8 7 50 12 116 13
84 1 108 -1 121 -14z"/>
<path d="M358 1193 l-268 -176 0 -82 0 -82 263 -174 c144 -96 265 -178 268
-182 10 -14 19 49 19 127 l0 71 -66 40 c-36 22 -93 58 -127 80 -109 70 -168
105 -177 105 -5 0 -11 6 -13 13 -4 9 -6 9 -6 -1 -1 -19 41 -55 122 -103 40
-23 98 -60 129 -81 31 -21 60 -38 63 -38 22 0 44 -49 45 -96 0 -48 -2 -51 -24
-51 -14 0 -27 6 -30 14 -3 8 -10 12 -15 9 -4 -3 -16 3 -26 14 -10 11 -23 20
-29 20 -6 0 -22 12 -35 25 -13 14 -29 25 -37 25 -8 0 -14 4 -14 8 0 5 -18 17
-40 27 -22 10 -40 21 -40 24 0 3 -21 19 -48 36 -26 16 -49 32 -52 35 -3 3 -29
21 -57 40 l-52 35 -1 63 c0 34 4 62 9 62 5 0 16 6 24 14 8 8 47 36 87 63 40
26 84 56 99 65 14 10 33 21 41 25 8 4 24 16 35 26 11 10 29 23 40 28 32 14 59
33 68 47 4 6 15 12 22 12 8 0 15 4 15 9 0 5 14 11 30 13 l30 5 0 -59 c0 -32
-3 -58 -7 -58 -5 0 -21 -12 -38 -26 -16 -14 -42 -32 -57 -40 -30 -16 -96 -58
-115 -74 -7 -5 -28 -17 -47 -27 -20 -9 -36 -20 -36 -25 0 -4 -6 -8 -13 -8 -7
0 -18 -9 -25 -20 -8 -14 -9 -20 -1 -20 6 0 91 51 190 113 l178 112 0 70 c-2
144 23 149 -281 -52z"/>
<path d="M2326 1348 c-3 -13 -6 -57 -6 -98 l0 -75 93 -59 c50 -32 115 -74 142
-91 28 -18 71 -45 98 -60 42 -24 60 -45 40 -45 -5 0 -53 -28 -109 -63 -55 -34
-137 -84 -182 -112 l-81 -50 0 -75 c2 -142 -22 -147 282 55 l267 178 0 81 0
81 -241 160 c-133 88 -254 168 -269 178 -27 17 -28 17 -34 -5z m86 -55 c4 -11
218 -153 229 -153 5 0 9 -5 9 -10 0 -6 8 -14 17 -17 27 -10 127 -79 142 -97 7
-9 20 -16 27 -16 11 0 14 -16 14 -65 0 -37 -4 -65 -10 -65 -6 0 -24 -13 -42
-30 -17 -16 -37 -30 -44 -30 -8 0 -14 -3 -14 -8 0 -4 -16 -16 -35 -26 -19 -10
-42 -26 -52 -35 -10 -9 -34 -25 -53 -35 -19 -11 -44 -28 -54 -38 -11 -10 -24
-18 -28 -18 -5 0 -21 -11 -36 -25 -15 -14 -32 -25 -39 -25 -7 0 -13 -4 -13
-10 0 -5 -7 -10 -15 -10 -8 0 -15 -4 -15 -10 0 -5 -11 -10 -25 -10 -24 0 -25
3 -25 53 0 43 4 57 23 73 30 26 127 91 207 139 36 21 67 43 68 47 2 4 8 8 14
8 14 0 48 39 48 55 0 15 -56 64 -100 89 -19 10 -65 39 -101 62 -37 24 -72 44
-78 44 -6 0 -11 5 -11 10 0 6 -4 10 -9 10 -6 0 -21 11 -35 24 -21 19 -26 32
-26 75 0 50 1 51 29 51 16 0 31 -3 33 -7z"/>
</g>
</svg>
